# xmcd
#
# Track frame offsets: 
#        150
#        49186
#        113403
#        152528
#        181696
#        205811
#
# Disc length: 3176 seconds
#
# Revision: 0
# Processed by: cddbd v1.5.2PL0 Copyright (c) Steve Scherf et al.
# Submitted via: ExactAudioCopy v1.0b3
#
DISCID=3e0c6606
DTITLE=Jonathan Williams - Into The Glory (2009)
DYEAR=2009
DGENRE=Praise and Worship
TTITLE0=Awaiting The King
TTITLE1=Realms Of Glory
TTITLE2=Into The Glory
TTITLE3=Canopy Of Grace
TTITLE4=This Is The Time
TTITLE5=Worship In Awe
EXTD=
EXTT0=
EXTT1=
EXTT2=
EXTT3=
EXTT4=
EXTT5=
PLAYORDER=
